<svg width="64" height="64" viewBox="0 0 64 64" fill="none" xmlns="http://www.w3.org/2000/svg">
<path d="M37.1209 14.5242V12.8173C37.2067 10.6604 40.2871 10.662 40.3722 12.8173V14.5242C40.2863 16.6812 37.2059 16.6795 37.1209 14.5242ZM22.246 16.1499C23.1439 16.1499 23.8717 15.4221 23.8717 14.5242V12.8173C23.7858 10.6604 20.7054 10.662 20.6203 12.8173V14.5242C20.6203 15.422 21.3481 16.1499 22.246 16.1499ZM22.4086 47.8505C21.5107 47.8505 20.7829 48.5783 20.7829 49.4761V51.1831C20.8687 53.34 23.9491 53.3384 24.0342 51.1831V49.4761C24.0342 48.5783 23.3063 47.8505 22.4086 47.8505ZM38.9091 47.8505C38.0113 47.8505 37.2834 48.5783 37.2834 49.4761V51.1831C37.3693 53.34 40.4497 53.3384 40.5348 51.1831V49.4761C40.5348 48.5783 39.8069 47.8505 38.9091 47.8505ZM49.7198 32.0002C49.7198 32.8981 48.992 33.6259 48.0941 33.6259H46.8749V36.4708C46.8749 41.8492 42.4992 46.2248 37.1209 46.2248H24.0342C18.6559 46.2248 14.2802 41.8492 14.2802 36.4708V27.5296C14.2802 22.1512 18.6559 17.7756 24.0342 17.7756H37.1209C42.4992 17.7756 46.8749 22.1512 46.8749 27.5296V30.3745H48.0941C48.9919 30.3745 49.7198 31.1023 49.7198 32.0002ZM43.6236 27.5296C43.6236 23.944 40.7065 21.0269 37.1209 21.0269H24.0342C20.4487 21.0269 17.5316 23.944 17.5316 27.5296V36.4708C17.5316 40.0564 20.4487 42.9735 24.0342 42.9735H37.1209C40.7065 42.9735 43.6236 40.0564 43.6236 36.4708V27.5296Z" fill="#BCBDBF"/>
<path d="M38.0319 34.6595C38.0226 34.6702 38.0133 34.6807 38.0039 34.6911C36.9847 35.8088 35.5667 36.384 34.1406 36.384C33.0105 36.384 31.8753 36.0229 30.9291 35.2843C30.8934 35.2564 28.4848 33.0315 28.4848 33.0315C27.7438 32.4869 26.7232 32.5245 26.0255 33.1259L23.5374 35.5268C21.9274 36.9621 19.7873 34.7468 21.2798 33.1873C21.2798 33.1873 23.8286 30.7283 23.8454 30.7133C25.731 29.0394 28.543 28.9512 30.5316 30.5035C30.5673 30.5313 32.9757 32.7561 32.9757 32.7561C33.778 33.3451 34.9118 33.2429 35.5893 32.5135L37.5173 30.2857C38.1049 29.6068 39.1315 29.5327 39.8104 30.1203C40.4893 30.7078 40.5634 31.7345 39.9758 32.4134L38.0319 34.6595Z" fill="#BCBDBF"/>
</svg>
